<svg data-v-0dd9719b="" version="1.0" xmlns="http://www.w3.org/2000/svg" xmlns:xlink="http://www.w3.org/1999/xlink" width="100%" height="100%" viewBox="0 0 340.000000 250.000000" preserveAspectRatio="xMidYMid meet" color-interpolation-filters="sRGB" style="margin: auto;"> <rect data-v-0dd9719b="" x="0" y="0" width="100%" height="100%" fill="#fff" fill-opacity="1" class="background"></rect> <rect data-v-0dd9719b="" x="0" y="0" width="100%" height="100%" fill="url(#watermark)" fill-opacity="1" class="watermarklayer"></rect> <g data-v-0dd9719b="" fill="#141011" class="icon-text-wrapper icon-svg-group iconsvg" transform="translate(82.18499755859375,64.71074295043945)"><g class="iconsvg-imagesvg" transform="translate(57.81500244140625,0)"><g><rect fill="#141011" fill-opacity="0" stroke-width="2" x="0" y="0" width="60" height="59.97600959616154" class="image-rect"></rect> <svg x="0" y="0" width="60" height="59.97600959616154" filtersec="colorsb6901492525" class="image-svg-svg primary" style="overflow: visible;"><svg xmlns="http://www.w3.org/2000/svg" viewBox="0 0 75.25 75.22000122070312"><g><g><path d="M37.63 75.22L20.86 58.48l6.33-6.33 10.44 10.43 31.29-31.3 6.33 6.33z" fill="#141011"></path><path fill="#fd1a16" d="M31.29 48.04l27.2-27.18 6.32 6.32-27.18 27.2-6.34-6.34z"></path><path d="M37.63 0l16.76 16.76-6.34 6.32-10.42-10.42L6.34 43.94 0 37.62z" fill="#141011"></path><path fill="#fd1a16" d="M43.95 27.18l-27.19 27.2-6.32-6.34 27.19-27.18 6.32 6.32z"></path></g></g></svg></svg> <!----></g></g> <g transform="translate(0,66.97600936889648)"><g data-gra="path-name" fill-rule="" class="tp-name iconsvg-namesvg" transform="translate(0,0)"><g transform="scale(1)"><g><path d="M20.34-22.72L20.34-22.72 20.2-29.29Q24.48-29.38 27.68-29.56L27.68-29.56Q27.58-30.82 26.55-33.84L26.55-33.84 32.53-35.01Q33.39-32.8 33.8-29.79L33.8-29.79Q37.84-30.06 41.89-30.15L41.89-30.15 42.21-23.58Q40.5-23.45 20.34-22.72ZM22.59 3.33L22.59 3.33 16.83-0.49Q22.05-5.8 22.05-19.17L22.05-19.17Q29.34-20.2 31.99-20.2L31.99-20.2Q34.06-20.2 35.23-19.71L35.23-19.71Q36.9-18.95 36.9-15.25L36.9-15.25Q36.9-6.34 36.97-5.51 37.03-4.68 38.14-4.68 39.24-4.68 42.48-6.17L42.48-6.17 42.43 0.9Q38.84 2.43 35.46 2.43L35.46 2.43Q31.14 2.43 30.96-3.92L30.96-3.92Q30.96-10.35 31-12.33L31-12.33Q30.82-13.77 29.56-13.77L29.56-13.77Q28.3-13.77 27.31-13.59L27.31-13.59Q27.22-3.38 22.59 3.33ZM14.76-11.79L14.76 3.15 8.05 2.52 8.28-5.35Q7.42-3.87 6.75-3.01L6.75-3.01 2.48-8.01Q6.48-12.82 8.19-21.24L8.19-21.24 3.24-21.15 3.15-27.58 4.18-27.58Q6.03-27.58 8.46-27.68L8.46-27.68Q8.41-31.41 8.37-34.29L8.37-34.29 14.45-34.88 14.63-27.95 19.08-28.08 19.26-21.6Q18.9-21.55 14.71-21.38L14.71-21.38Q14.76-20.07 14.76-18.77L14.76-18.77Q17.01-17.23 19.57-14.8L19.57-14.8 16.74-9.67Q15.88-10.71 14.76-11.79L14.76-11.79ZM53.1-11.16L53.1-11.16 47.7-13.14Q49.59-17.37 50.27-24.12L50.27-24.12 55.13-23.04Q54.81-16.52 53.1-11.16ZM86.04-4.81L86 3.28 78.93 3.33Q79.42-4.81 79.47-13.86L79.47-13.86 74.83-12.01Q74.66-15.03 73.98-18.95L73.98-18.95Q74.07-12.91 74.07-8.96L74.07-8.96 74.03-0.85 67-1.21Q67.36-7.96 67.45-13.46L67.45-13.46 63.36-11.83Q63.09-15.34 62.23-19.98L62.23-19.98Q62.14-16.34 61.92-12.33L61.92-12.33Q61.47-3.73 58.86 3.15L58.86 3.15 51.66 0.81Q54.54-5.49 55.22-14.49L55.22-14.49Q55.66-19.53 55.66-26.59L55.66-26.59Q55.66-31.23 55.58-35.01L55.58-35.01 62.14-35.01Q62.33-31 62.33-25.7L62.33-25.7 62.28-22.18 66.15-23.67Q67-21.02 67.45-18.09L67.45-18.09 67.32-33.21 73.8-33.39 73.98-22.45 77.76-23.89Q78.62-21.33 79.42-17.37L79.42-17.37 79.29-34.92 85.77-35.14Q86.04-15.3 86.04-4.81L86.04-4.81ZM109.13-31.32L109.13-31.32Q109.13-32.53 109.13-34.96L109.13-34.96 116.1-35.19Q116.1-32.8 116.1-31.5L116.1-31.5Q124.83-31.72 129.87-31.86L129.87-31.86 130.41-25.33Q128.2-25.24 116.1-24.97L116.1-24.97Q116.1-22.95 116.1-21.33L116.1-21.33Q123.57-21.55 128.43-21.69L128.43-21.69 128.93-15.3Q126.85-15.16 116.1-14.94L116.1-14.94 116.1-10.75Q126.45-11.03 131.67-11.07L131.67-11.07 132.16-4.63Q129.82-4.5 116.1-4.27L116.1-4.27 116.1 3.46 109.13 3.46Q109.13 0.22 109.13-4.18L109.13-4.18Q97.92-3.87 92.97-3.73L92.97-3.73 92.75-10.21Q98.5-10.21 109.13-10.53L109.13-10.53 109.13-14.67Q101.11-14.35 96.17-14.22L96.17-14.22 96.03-20.65Q101.79-20.88 109.13-21.15L109.13-21.15 109.13-24.84Q99.27-24.7 94.23-24.66L94.23-24.66 94.05-31.09Q99.81-31.14 109.13-31.32ZM154.08-27.77L154.08-27.77Q145.57-27.49 140-27.4L140-27.4 139.86-34.11Q146.97-34.16 157.34-34.54 167.72-34.92 174.33-35.05L174.33-35.05 174.69-28.35Q172.89-28.26 160.51-27.99L160.51-27.99Q160.56-18.99 160.6-15.79L160.6-15.79Q170.14-16.16 177.66-16.2L177.66-16.2 178.11-9.36Q175.91-9.27 160.69-8.96L160.69-8.96Q160.74-6.66 160.74-6.08L160.74-6.08 160.69 3.33 153.72 3.01Q154.08-6.03 154.08-8.78L154.08-8.78Q144.63-8.5 137.56-8.41L137.56-8.41 137.38-15.25Q145.17-15.3 154.08-15.52L154.08-15.52Q154.08-18.45 154.08-27.77ZM142.11-24.93L147.82-26.41Q150.25-22.23 150.93-18L150.93-18 144.68-16.52Q143.96-20.7 142.11-24.93L142.11-24.93ZM166.23-27L166.23-27 172.26-25.61Q171.72-21.29 169.97-16.61L169.97-16.61 163.75-18.54Q165.65-22.72 166.23-27Z" transform="translate(-2.4800000190734863, 35.189998626708984)"></path></g> <!----> <!----> <!----> <!----> <!----> <!----> <!----></g></g> <g data-gra="path-slogan" fill-rule="" class="tp-slogan iconsvg-slogansvg" fill="#141011" transform="translate(5,44.650001525878906)"><rect x="0" height="1" y="3.9750008583068848" width="13.625"></rect> <rect height="1" y="3.9750008583068848" width="13.625" x="152.0050048828125"></rect> <g transform="translate(16.625,0)"><g transform="scale(1)"><path d="M2.06-5.06L6.56-5.06L6.56-8.58L7.73-8.58L7.73 0L6.56 0L6.56-3.98L2.06-3.98L2.06 0L0.89 0L0.89-8.58L2.06-8.58L2.06-5.06ZM15.19 0L14.34-2.48L10.88-2.48L9.98 0L8.81 0L12.05-8.58L13.36-8.58L16.45 0L15.19 0ZM12.61-7.31L11.25-3.52L13.92-3.52L12.66-7.31L12.61-7.31ZM18.89-8.58L23.20-1.64L23.20-8.58L24.33-8.58L24.33 0L23.02 0L18.66-6.94L18.61-6.94L18.61 0L17.48 0L17.48-8.58L18.89-8.58ZM32.53-3.61L29.91-3.61L29.91-4.59L33.66-4.59L33.66 0L32.91 0L32.63-1.08Q31.64 0.09 29.81 0.14L29.81 0.14Q28.08 0.14 27.14-0.75L27.14-0.75Q25.73-2.06 25.78-4.36L25.78-4.36Q26.11-8.63 29.86-8.81L29.86-8.81Q33.05-8.63 33.52-6L33.52-6L32.39-6Q31.92-7.78 29.81-7.83L29.81-7.83Q27.14-7.64 27-4.31L27-4.31Q27-0.75 29.86-0.75L29.86-0.75Q30.89-0.75 31.64-1.31L31.64-1.31Q32.58-2.06 32.53-3.61L32.53-3.61ZM36.28-1.03L41.58-1.03L41.58 0L34.83 0L34.83-0.94L40.08-7.59L35.20-7.59L35.20-8.58L41.58-8.58L41.58-7.59L36.28-1.03ZM43.88-5.06L48.38-5.06L48.38-8.58L49.55-8.58L49.55 0L48.38 0L48.38-3.98L43.88-3.98L43.88 0L42.70 0L42.70-8.58L43.88-8.58L43.88-5.06ZM58.13-4.27L58.13-4.27Q57.94-7.64 55.13-7.83L55.13-7.83Q52.27-7.69 52.13-4.27L52.13-4.27Q52.27-0.94 55.13-0.80L55.13-0.80Q57.94-0.98 58.13-4.27ZM59.30-4.27L59.30-4.27Q59.02 0 55.13 0.14L55.13 0.14Q51.19 0 50.91-4.27L50.91-4.27Q51.14-8.72 55.13-8.81L55.13-8.81Q59.02-8.67 59.30-4.27ZM66.33-3.19L66.33-8.58L67.50-8.58L67.50-3.05Q67.36 0.05 63.98 0.14L63.98 0.14Q60.84 0.05 60.70-2.86L60.70-2.86L60.70-8.58L61.88-8.58L61.88-3.19Q61.92-0.84 64.03-0.80L64.03-0.80Q66.33-0.84 66.33-3.19L66.33-3.19ZM78.14-3.89L73.92-3.89L73.92 0L72.75 0L72.75-8.58L78.70-8.58L78.70-7.59L73.92-7.59L73.92-4.92L78.14-4.92L78.14-3.89ZM81.19-1.03L86.34-1.03L86.34 0L80.02 0L80.02-8.58L86.25-8.58L86.25-7.59L81.19-7.59L81.19-4.92L85.88-4.92L85.88-3.89L81.19-3.89L81.19-1.03ZM89.25-8.58L93.56-1.64L93.56-8.58L94.69-8.58L94.69 0L93.38 0L89.02-6.94L88.97-6.94L88.97 0L87.84 0L87.84-8.58L89.25-8.58ZM102.89-3.61L100.27-3.61L100.27-4.59L104.02-4.59L104.02 0L103.27 0L102.98-1.08Q102 0.09 100.17 0.14L100.17 0.14Q98.44 0.14 97.50-0.75L97.50-0.75Q96.09-2.06 96.14-4.36L96.14-4.36Q96.47-8.63 100.22-8.81L100.22-8.81Q103.41-8.63 103.88-6L103.88-6L102.75-6Q102.28-7.78 100.17-7.83L100.17-7.83Q97.50-7.64 97.36-4.31L97.36-4.31Q97.36-0.75 100.22-0.75L100.22-0.75Q101.25-0.75 102-1.31L102-1.31Q102.94-2.06 102.89-3.61L102.89-3.61ZM109.45-7.64L107.11-7.64L107.11-4.64L109.41-4.64Q111.19-4.64 111.19-6.19L111.19-6.19Q111.19-7.59 109.45-7.64L109.45-7.64ZM109.83-3.61L107.11-3.61L107.11 0L105.94 0L105.94-8.58L109.83-8.58Q112.27-8.48 112.36-6.19L112.36-6.19Q112.22-3.70 109.83-3.61L109.83-3.61ZM113.95-8.58L115.13-8.58L115.13 0L113.95 0L113.95-8.58ZM118.50-8.58L122.81-1.64L122.81-8.58L123.94-8.58L123.94 0L122.63 0L118.27-6.94L118.22-6.94L118.22 0L117.09 0L117.09-8.58L118.50-8.58ZM132.14-3.61L129.52-3.61L129.52-4.59L133.27-4.59L133.27 0L132.52 0L132.23-1.08Q131.25 0.09 129.42 0.14L129.42 0.14Q127.69 0.14 126.75-0.75L126.75-0.75Q125.34-2.06 125.39-4.36L125.39-4.36Q125.72-8.63 129.47-8.81L129.47-8.81Q132.66-8.63 133.13-6L133.13-6L132-6Q131.53-7.78 129.42-7.83L129.42-7.83Q126.75-7.64 126.61-4.31L126.61-4.31Q126.61-0.75 129.47-0.75L129.47-0.75Q130.50-0.75 131.25-1.31L131.25-1.31Q132.19-2.06 132.14-3.61L132.14-3.61Z" transform="translate(-0.890625, 8.8125)"></path></g></g></g></g></g><defs v-gra="od"></defs></svg>